# xmcd
#
# Track frame offsets: 
#        150
#        21953
#        43912
#        64831
#        81269
#        101644
#        116387
#        130136
#        147001
#        162349
#
# Disc length: 2421 seconds
#
# Revision: 0
# Processed by: cddbd v1.4PL0 Copyright (c) Steve Scherf et al.
# Submitted via: ExactAudioCopy v0.90a11
#
DISCID=8609730a
DTITLE=Jeff Hughes and Chaparral - Head For Cover
DYEAR=1900
DGENRE=
TTITLE0=Sweet Child Of Mine
TTITLE1=Don't Go Back To Rockville
TTITLE2=My Beautiful Reward
TTITLE3=I Don't Wanna Talk About It
TTITLE4=Feel Like Makin' Love
TTITLE5=You Shook Me All Night Long
TTITLE6=The Ballad Of John And Yoko
TTITLE7=Sundown
TTITLE8=Just Like Heaven
TTITLE9=More Than This
EXTD=
EXTT0=
EXTT1=
EXTT2=
EXTT3=
EXTT4=
EXTT5=
EXTT6=
EXTT7=
EXTT8=
EXTT9=
PLAYORDER=
